<svg width="38" height="28" viewBox="0 0 38 28" fill="none" xmlns="http://www.w3.org/2000/svg">
<path d="M24.6972 0C32.0441 0 38 6.26801 38 14C38 21.5709 32.2897 27.7382 25.1545 27.9919L24.6972 28H13.3028C5.95587 28 0 21.732 0 14C0 6.4291 5.7103 0.261802 12.8455 0.00811768L13.3028 0H24.6972ZM24.6972 3H13.3028C7.53022 3 2.8506 7.92487 2.8506 14C2.8506 19.927 7.30473 24.7591 12.8824 24.9913L13.3028 25H24.6972C30.4698 25 35.1494 20.0751 35.1494 14C35.1494 8.07304 30.6953 3.24092 25.1176 3.00873L24.6972 3ZM11.3984 8C12.1856 8 12.8237 8.67157 12.8237 9.5L12.822 12.496L15.6743 12.4975C16.4615 12.4975 17.0996 13.1691 17.0996 13.9975C17.0996 14.8259 16.4615 15.4975 15.6743 15.4975L12.822 15.496L12.8237 18.5C12.8237 19.3284 12.1856 20 11.3984 20C10.6112 20 9.97309 19.3284 9.97309 18.5L9.97141 15.496L7.12249 15.4975C6.33531 15.4975 5.69719 14.8259 5.69719 13.9975C5.69719 13.1691 6.33531 12.4975 7.12249 12.4975L9.97141 12.496L9.97309 9.5C9.97309 8.67157 10.6112 8 11.3984 8ZM24.2261 15C25.5381 15 26.6016 16.1193 26.6016 17.5C26.6016 18.8807 25.5381 20 24.2261 20C22.9142 20 21.8506 18.8807 21.8506 17.5C21.8506 16.1193 22.9142 15 24.2261 15ZM28.0269 8C29.3389 8 30.4024 9.11929 30.4024 10.5C30.4024 11.8807 29.3389 13 28.0269 13C26.715 13 25.6514 11.8807 25.6514 10.5C25.6514 9.11929 26.715 8 28.0269 8Z" fill="#898F9C"/>
</svg>
