<svg width="30" height="28" viewBox="0 0 30 28" fill="none" xmlns="http://www.w3.org/2000/svg">
<path d="M19.0675 10.1818C20.6208 10.1818 21.88 11.4639 21.88 13.0455V20.9987C21.88 24.8654 18.8014 28 15.0037 28C11.206 28 8.12741 24.8654 8.12741 20.9987V13.0455C8.12741 11.4639 9.38661 10.1818 10.9399 10.1818H19.0675ZM19.0675 12.0909H10.9399C10.4221 12.0909 10.0024 12.5183 10.0024 13.0455V20.9987C10.0024 23.811 12.2416 26.0909 15.0037 26.0909C17.7659 26.0909 20.005 23.811 20.005 20.9987V13.0455C20.005 12.5183 19.5853 12.0909 19.0675 12.0909ZM2.8125 10.1818L8.00807 10.1822C7.51472 10.7057 7.15534 11.3612 6.98601 12.0913L2.8125 12.0909C2.29473 12.0909 1.875 12.5183 1.875 13.0455V19.7257C1.875 21.8353 3.55463 23.5455 5.62655 23.5455C6.17763 23.5455 6.70097 23.4245 7.17232 23.2072C7.33912 23.83 7.5779 24.4235 7.87733 24.9782C7.18857 25.2843 6.42708 25.4545 5.62655 25.4545C2.51909 25.4545 0 22.8897 0 19.7257V13.0455C0 11.4639 1.2592 10.1818 2.8125 10.1818ZM27.1875 10.1818C28.7408 10.1818 30 11.4639 30 13.0455V19.7273C30 22.8904 27.4816 25.4545 24.375 25.4545C23.5762 25.4545 22.8162 25.285 22.128 24.9793L22.1976 24.8505C22.4652 24.3335 22.6806 23.7841 22.8367 23.2097C23.3047 23.4254 23.8261 23.5455 24.375 23.5455C26.4461 23.5455 28.125 21.836 28.125 19.7273V13.0455C28.125 12.5183 27.7053 12.0909 27.1875 12.0909L23.0214 12.0913C22.8521 11.3612 22.4927 10.7057 21.9994 10.1822L27.1875 10.1818ZM15 0C17.4162 0 19.375 1.99437 19.375 4.45455C19.375 6.91472 17.4162 8.90909 15 8.90909C12.5838 8.90909 10.625 6.91472 10.625 4.45455C10.625 1.99437 12.5838 0 15 0ZM25.0037 1.27273C27.0748 1.27273 28.7537 2.98219 28.7537 5.09091C28.7537 7.19963 27.0748 8.90909 25.0037 8.90909C22.9327 8.90909 21.2537 7.19963 21.2537 5.09091C21.2537 2.98219 22.9327 1.27273 25.0037 1.27273ZM4.99627 1.27273C7.06734 1.27273 8.74627 2.98219 8.74627 5.09091C8.74627 7.19963 7.06734 8.90909 4.99627 8.90909C2.9252 8.90909 1.24627 7.19963 1.24627 5.09091C1.24627 2.98219 2.9252 1.27273 4.99627 1.27273ZM15 1.90909C13.6193 1.90909 12.5 3.04873 12.5 4.45455C12.5 5.86036 13.6193 7 15 7C16.3807 7 17.5 5.86036 17.5 4.45455C17.5 3.04873 16.3807 1.90909 15 1.90909ZM25.0037 3.18182C23.9682 3.18182 23.1287 4.03655 23.1287 5.09091C23.1287 6.14527 23.9682 7 25.0037 7C26.0393 7 26.8787 6.14527 26.8787 5.09091C26.8787 4.03655 26.0393 3.18182 25.0037 3.18182ZM4.99627 3.18182C3.96074 3.18182 3.12127 4.03655 3.12127 5.09091C3.12127 6.14527 3.96074 7 4.99627 7C6.0318 7 6.87127 6.14527 6.87127 5.09091C6.87127 4.03655 6.0318 3.18182 4.99627 3.18182Z" fill="#898F9C"/>
</svg>
