<svg width="28" height="28" viewBox="0 0 28 28" fill="none" xmlns="http://www.w3.org/2000/svg">
<path fill-rule="evenodd" clip-rule="evenodd" d="M12.029 0.629954C13.1806 -0.209985 14.8194 -0.209985 15.971 0.629955L26.821 8.54325C27.5663 9.08683 28 9.9086 28 10.7773V25.136C28 26.7177 26.5897 28 24.85 28H21.35C19.6103 28 18.2 26.7177 18.2 25.136V16.8621C18.2 16.3349 17.7299 15.9075 17.15 15.9075H10.85C10.2701 15.9075 9.8 16.3349 9.8 16.8621V25.136C9.8 26.7177 8.3897 28 6.65 28H3.15C1.4103 28 0 26.7177 0 25.136V10.7773C0 9.9086 0.433668 9.08683 1.17898 8.54325L12.029 0.629954Z" fill="#4267B2"/>
</svg>
