<svg width="28" height="28" viewBox="0 0 28 28" fill="none" xmlns="http://www.w3.org/2000/svg">
<path d="M22.3997 0C22.6431 0 22.8774 0.0845206 23.0637 0.236634L23.1694 0.335878L27.7504 5.27554L27.7933 5.33C27.9357 5.51993 28 5.73531 28 5.94685L27.9979 8.63343C27.9979 10.0253 27.468 11.2934 26.5989 12.2469L26.5978 26.95C26.5978 27.4816 26.2028 27.9209 25.6903 27.9904L25.5478 28H2.45218C1.92062 28 1.48133 27.605 1.4118 27.0925L1.40222 26.95L1.40112 12.2469C0.598871 11.3667 0.0856133 10.2185 0.0113977 8.95234L0.00207741 8.63343L0.00180104 6.00736C-0.00949717 5.81512 0.032016 5.61734 0.136102 5.43638L0.227465 5.30274L0.282307 5.2387L4.83059 0.335878C4.99615 0.157404 5.21744 0.043138 5.45566 0.0100069L5.60032 0H22.3997ZM18.3146 11.8189L18.2978 11.8438C17.3194 13.1521 15.7578 13.999 13.9983 13.999C12.2291 13.999 10.6598 13.1426 9.68244 11.8217C8.70604 13.1426 7.13677 13.999 5.36747 13.999C4.71075 13.999 4.08159 13.881 3.50003 13.6651L3.5018 25.8986H5.59979L5.60032 16.4514C5.60032 15.9198 5.99532 15.4805 6.5078 15.411L6.65028 15.4014H12.9444C13.4759 15.4014 13.9152 15.7964 13.9847 16.3089L13.9943 16.4514L13.9939 25.8986H24.4968L24.4971 13.6661C23.9164 13.8814 23.2882 13.999 22.6325 13.999C20.862 13.999 19.2918 13.1414 18.3146 11.8189ZM11.8931 17.5014H7.70024V25.8986H11.8931V17.5014ZM21.3563 15.4014C21.8879 15.4014 22.3272 15.7964 22.3967 16.3089L22.4063 16.4514V21.3542C22.4063 21.8858 22.0113 22.3251 21.4988 22.3947L21.3563 22.4042H16.4545C15.923 22.4042 15.4837 22.0092 15.4141 21.4967L15.4046 21.3542V16.4514C15.4046 15.9198 15.7996 15.4805 16.312 15.411L16.4545 15.4014H21.3563ZM20.3054 17.5014H17.5041V20.3042H20.3054V17.5014ZM8.6326 7.0028H2.10185L2.102 8.63343L2.11064 8.87288L2.15037 9.19659L2.19621 9.4154L2.26534 9.65616L2.34144 9.86314L2.39839 9.99474C2.44202 10.0898 2.49008 10.1823 2.54231 10.2722L2.68642 10.4982L2.76241 10.6028L2.94269 10.8207L3.14116 11.0224L3.2759 11.1414L3.33483 11.1894C3.77515 11.5401 4.30812 11.7793 4.89111 11.8645L5.1439 11.8915L5.36747 11.899C7.0958 11.899 8.51052 10.5563 8.62542 8.85701L8.63295 8.63343L8.6326 7.0028ZM17.2633 7.0028H10.7325L10.7329 8.63343C10.7329 10.2867 11.9614 11.653 13.5552 11.8692L13.7748 11.8915L13.9983 11.899C15.7267 11.899 17.1414 10.5563 17.2563 8.85701L17.2638 8.63343L17.2633 7.0028ZM25.8967 7.0028H19.366L19.367 8.63343C19.367 10.2867 20.5955 11.653 22.1894 11.8692L22.4089 11.8915L22.6325 11.899C23.4225 11.899 24.147 11.6185 24.7118 11.1516L24.8374 11.0422L24.9996 10.883L25.2042 10.6462C25.2798 10.5496 25.3502 10.4487 25.4148 10.3439L25.5597 10.0825L25.6478 9.88936L25.7293 9.67223L25.771 9.53839L25.8245 9.32551L25.8642 9.10493L25.8895 8.87149L25.898 8.63343L25.8967 7.0028ZM9.88643 2.0986H6.0581L3.457 4.9028H9.02406L9.88643 2.0986ZM15.916 2.0986H12.0829L11.2206 4.9028H16.7784L15.916 2.0986ZM21.9405 2.0986H18.1125L18.9749 4.9028H24.5416L21.9405 2.0986Z" fill="#898F9C"/>
</svg>
