<svg width="34" height="28" viewBox="0 0 34 28" fill="none" xmlns="http://www.w3.org/2000/svg">
<path d="M6.13889 0H27.8611C31.1346 0 33.8097 2.3738 33.9903 5.36476L34 5.6875V22.3125C34 25.3453 31.4378 27.8237 28.2095 27.991L27.8611 28H6.13889C2.86539 28 0.190313 25.6262 0.00971802 22.6352L0 22.3125V5.6875C0 2.6547 2.56219 0.176319 5.79053 0.00900304L6.13889 0H27.8611H6.13889ZM27.8611 2.625H6.13889C4.40456 2.625 2.98219 3.86244 2.84429 5.43633L2.83333 5.6875V22.3125C2.83333 23.9193 4.16899 25.2371 5.86778 25.3648L6.13889 25.375H27.8611C29.5954 25.375 31.0178 24.1376 31.1557 22.5637L31.1667 22.3125V5.6875C31.1667 4.0807 29.831 2.76291 28.1322 2.63515L27.8611 2.625ZM13.3219 9.77447C13.5293 9.39026 14.0006 9.20915 14.4304 9.32543L14.589 9.38315L22.8661 13.2174C23.0489 13.302 23.1971 13.4394 23.2884 13.6087C23.4958 13.9929 23.3694 14.4509 23.0111 14.6997L22.8661 14.7826L14.589 18.6168C14.4579 18.6776 14.3133 18.7092 14.1667 18.7092C13.703 18.7092 13.3174 18.3997 13.2374 17.9915L13.2222 17.8342V10.1658C13.2222 10.0299 13.2564 9.89597 13.3219 9.77447Z" fill="#898F9C"/>
</svg>
