<svg width="32" height="21" viewBox="0 0 32 21" fill="none" xmlns="http://www.w3.org/2000/svg">
<path d="M0 2.8C0 2.05739 0.187301 1.3452 0.520699 0.820102C0.854097 0.295 1.30628 0 1.77778 0H30.2222C30.6937 0 31.1459 0.295 31.4793 0.820102C31.8127 1.3452 32 2.05739 32 2.8C32 3.54261 31.8127 4.2548 31.4793 4.7799C31.1459 5.305 30.6937 5.6 30.2222 5.6H1.77778C1.30628 5.6 0.854097 5.305 0.520699 4.7799C0.187301 4.2548 0 3.54261 0 2.8ZM0 18.2C0 17.4574 0.187301 16.7452 0.520699 16.2201C0.854097 15.695 1.30628 15.4 1.77778 15.4H30.2222C30.6937 15.4 31.1459 15.695 31.4793 16.2201C31.8127 16.7452 32 17.4574 32 18.2C32 18.9426 31.8127 19.6548 31.4793 20.1799C31.1459 20.705 30.6937 21 30.2222 21H1.77778C1.30628 21 0.854097 20.705 0.520699 20.1799C0.187301 19.6548 0 18.9426 0 18.2Z" fill="black"/>
</svg>
