<svg width="26" height="28" viewBox="0 0 26 28" fill="none" xmlns="http://www.w3.org/2000/svg">
<path d="M26 22.6976L25.7034 22.4392C24.8618 21.6991 24.1252 20.8503 23.5134 19.9158C22.8453 18.6262 22.4448 17.2178 22.3356 15.7733V11.5189C22.3413 9.25008 21.5076 7.05728 19.991 5.35249C18.4744 3.64769 16.3793 2.54824 14.0993 2.26071V1.14973C14.0993 0.844806 13.9766 0.552367 13.7582 0.33675C13.5397 0.121133 13.2435 0 12.9346 0C12.6256 0 12.3294 0.121133 12.111 0.33675C11.8925 0.552367 11.7698 0.844806 11.7698 1.14973V2.27794C9.51029 2.58619 7.44051 3.69229 5.94382 5.39136C4.44712 7.09042 3.62493 9.26733 3.62953 11.5189V15.7733C3.52026 17.2178 3.11981 18.6262 2.45168 19.9158C1.85043 20.848 1.12567 21.6966 0.296644 22.4392L0 22.6976V25.1262H26V22.6976Z" fill="black"/>
<path d="M10.7054 26.0305C10.7819 26.5764 11.0559 27.0766 11.4769 27.4386C11.8979 27.8006 12.4373 28 12.9956 28C13.554 28 14.0934 27.8006 14.5144 27.4386C14.9354 27.0766 15.2094 26.5764 15.2859 26.0305H10.7054Z" fill="black"/>
</svg>
