<svg width="25" height="25" viewBox="0 0 25 25" fill="none" xmlns="http://www.w3.org/2000/svg">
<path d="M9.89583 0C15.3612 0 19.7917 4.43052 19.7917 9.89583C19.7917 12.0645 19.0941 14.0703 17.911 15.7009L24.5424 22.3326C25.1525 22.9428 25.1525 23.9322 24.5424 24.5424C23.9703 25.1144 23.065 25.1502 22.4513 24.6496L22.3326 24.5424L15.7009 17.911C14.0703 19.0941 12.0645 19.7917 9.89583 19.7917C4.43052 19.7917 0 15.3612 0 9.89583C0 4.43052 4.43052 0 9.89583 0ZM9.89583 3.125C6.1564 3.125 3.125 6.1564 3.125 9.89583C3.125 13.6353 6.1564 16.6667 9.89583 16.6667C13.6353 16.6667 16.6667 13.6353 16.6667 9.89583C16.6667 6.1564 13.6353 3.125 9.89583 3.125Z" fill="#898F9C"/>
</svg>
