<svg width="35" height="35" viewBox="0 0 35 35" fill="none" xmlns="http://www.w3.org/2000/svg">
<path d="M24.0625 14.2188C24.0625 13.9287 24.1777 13.6505 24.3829 13.4454C24.588 13.2402 24.8662 13.125 25.1562 13.125H27.3438C27.6338 13.125 27.912 13.2402 28.1171 13.4454C28.3223 13.6505 28.4375 13.9287 28.4375 14.2188V16.4062C28.4375 16.6963 28.3223 16.9745 28.1171 17.1796C27.912 17.3848 27.6338 17.5 27.3438 17.5H25.1562C24.8662 17.5 24.588 17.3848 24.3829 17.1796C24.1777 16.9745 24.0625 16.6963 24.0625 16.4062V14.2188Z" fill="black"/>
<path d="M7.65625 0C7.94633 0 8.22453 0.115234 8.42965 0.320352C8.63477 0.52547 8.75 0.803669 8.75 1.09375V2.1875H26.25V1.09375C26.25 0.803669 26.3652 0.52547 26.5704 0.320352C26.7755 0.115234 27.0537 0 27.3438 0C27.6338 0 27.912 0.115234 28.1171 0.320352C28.3223 0.52547 28.4375 0.803669 28.4375 1.09375V2.1875H30.625C31.7853 2.1875 32.8981 2.64844 33.7186 3.46891C34.5391 4.28938 35 5.40218 35 6.5625V30.625C35 31.7853 34.5391 32.8981 33.7186 33.7186C32.8981 34.5391 31.7853 35 30.625 35H4.375C3.21468 35 2.10188 34.5391 1.28141 33.7186C0.460936 32.8981 0 31.7853 0 30.625V6.5625C0 5.40218 0.460936 4.28938 1.28141 3.46891C2.10188 2.64844 3.21468 2.1875 4.375 2.1875H6.5625V1.09375C6.5625 0.803669 6.67773 0.52547 6.88285 0.320352C7.08797 0.115234 7.36617 0 7.65625 0ZM2.1875 8.75V30.625C2.1875 31.2052 2.41797 31.7616 2.8282 32.1718C3.23844 32.582 3.79484 32.8125 4.375 32.8125H30.625C31.2052 32.8125 31.7616 32.582 32.1718 32.1718C32.582 31.7616 32.8125 31.2052 32.8125 30.625V8.75H2.1875Z" fill="black"/>
</svg>
