<svg width="39" height="39" viewBox="0 0 39 39" fill="none" xmlns="http://www.w3.org/2000/svg">
<path d="M4.91667 21.7826L20.9583 21.7841C22.4952 21.7841 23.7556 23.0251 23.867 24.6004L23.875 24.8276V28.6304C23.8735 35.0217 17.6231 37 12.9375 37C8.34559 37 2.24945 35.1001 2.00744 29.0086L2 28.6304V24.8261C2 23.2225 3.19058 21.9072 4.6991 21.791L4.91667 21.7826ZM24.1958 21.7841L34.0833 21.7826C35.6202 21.7826 36.8806 23.025 36.992 24.5991L37 24.8261V27.8696C36.9985 33.5898 31.9979 35.4783 28.25 35.4783C26.7071 35.4783 24.9556 35.1511 23.4244 34.375C24.5214 33.0144 25.2336 31.2826 25.3236 29.1041L25.3333 28.6304V24.8276C25.3333 23.7596 24.9706 22.7872 24.3798 22.011L24.1958 21.7841ZM12.9375 2C17.3665 2 20.9583 5.74804 20.9583 10.3696C20.9583 14.9911 17.3665 18.7391 12.9375 18.7391C8.50854 18.7391 4.91667 14.9911 4.91667 10.3696C4.91667 5.74804 8.50854 2 12.9375 2ZM28.9792 5.04348C32.6031 5.04348 35.5417 8.10978 35.5417 11.8913C35.5417 15.6728 32.6031 18.7391 28.9792 18.7391C25.3552 18.7391 22.4167 15.6728 22.4167 11.8913C22.4167 8.10978 25.3552 5.04348 28.9792 5.04348Z" stroke="black" stroke-width="3"/>
</svg>
