<svg width="35" height="35" viewBox="0 0 35 35" fill="none" xmlns="http://www.w3.org/2000/svg">
<path d="M22.2455 12.7273C24.0576 12.7273 25.5267 14.3299 25.5267 16.3068V26.2483C25.5267 31.0817 21.935 35 17.5043 35C13.0737 35 9.48198 31.0817 9.48198 26.2483V16.3068C9.48198 14.3299 10.951 12.7273 12.7632 12.7273H22.2455ZM22.2455 15.1136H12.7632C12.1592 15.1136 11.6695 15.6478 11.6695 16.3068V26.2483C11.6695 29.7638 14.2818 32.6136 17.5043 32.6136C20.7268 32.6136 23.3392 29.7638 23.3392 26.2483V16.3068C23.3392 15.6478 22.8495 15.1136 22.2455 15.1136ZM3.28125 12.7273L9.34274 12.7277C8.76717 13.3822 8.34789 14.2014 8.15035 15.1142L3.28125 15.1136C2.67719 15.1136 2.1875 15.6478 2.1875 16.3068V24.6571C2.1875 27.2941 4.14706 29.4318 6.56431 29.4318C7.20724 29.4318 7.8178 29.2806 8.36771 29.009C8.56231 29.7876 8.84088 30.5294 9.19022 31.2228C8.38666 31.6054 7.49826 31.8182 6.56431 31.8182C2.93894 31.8182 0 28.6121 0 24.6571V16.3068C0 14.3299 1.46907 12.7273 3.28125 12.7273ZM31.7188 12.7273C33.5309 12.7273 35 14.3299 35 16.3068V24.6591C35 28.6129 32.0619 31.8182 28.4375 31.8182C27.5055 31.8182 26.6189 31.6062 25.816 31.2241L25.8972 31.0631C26.2094 30.4168 26.4607 29.7301 26.6428 29.0121C27.1888 29.2817 27.7971 29.4318 28.4375 29.4318C30.8537 29.4318 32.8125 27.295 32.8125 24.6591V16.3068C32.8125 15.6478 32.3228 15.1136 31.7188 15.1136L26.8583 15.1142C26.6608 14.2014 26.2415 13.3822 25.6659 12.7277L31.7188 12.7273ZM17.5 0C20.319 0 22.6042 2.49296 22.6042 5.56818C22.6042 8.6434 20.319 11.1364 17.5 11.1364C14.681 11.1364 12.3958 8.6434 12.3958 5.56818C12.3958 2.49296 14.681 0 17.5 0ZM29.171 1.59091C31.5873 1.59091 33.546 3.72773 33.546 6.36364C33.546 8.99954 31.5873 11.1364 29.171 11.1364C26.7548 11.1364 24.796 8.99954 24.796 6.36364C24.796 3.72773 26.7548 1.59091 29.171 1.59091ZM5.82898 1.59091C8.24523 1.59091 10.204 3.72773 10.204 6.36364C10.204 8.99954 8.24523 11.1364 5.82898 11.1364C3.41274 11.1364 1.45398 8.99954 1.45398 6.36364C1.45398 3.72773 3.41274 1.59091 5.82898 1.59091ZM17.5 2.38636C15.8892 2.38636 14.5833 3.81091 14.5833 5.56818C14.5833 7.32545 15.8892 8.75 17.5 8.75C19.1108 8.75 20.4167 7.32545 20.4167 5.56818C20.4167 3.81091 19.1108 2.38636 17.5 2.38636ZM29.171 3.97727C27.9629 3.97727 26.9835 5.04568 26.9835 6.36364C26.9835 7.68159 27.9629 8.75 29.171 8.75C30.3791 8.75 31.3585 7.68159 31.3585 6.36364C31.3585 5.04568 30.3791 3.97727 29.171 3.97727ZM5.82898 3.97727C4.62086 3.97727 3.64148 5.04568 3.64148 6.36364C3.64148 7.68159 4.62086 8.75 5.82898 8.75C7.0371 8.75 8.01648 7.68159 8.01648 6.36364C8.01648 5.04568 7.0371 3.97727 5.82898 3.97727Z" fill="black"/>
</svg>
