<svg width="35" height="35" viewBox="0 0 35 35" fill="none" xmlns="http://www.w3.org/2000/svg">
<path d="M27.9996 0C28.3039 0 28.5967 0.105651 28.8296 0.295793L28.9618 0.419848L34.688 6.59442L34.7417 6.6625C34.9197 6.89991 35 7.16914 35 7.43357L34.9974 10.7918C34.9974 12.5316 34.335 14.1167 33.2486 15.3086L33.2472 33.6875C33.2472 34.352 32.7535 34.9011 32.1129 34.988L31.9348 35H3.06522C2.40078 35 1.85166 34.5062 1.76475 33.8656L1.75277 33.6875L1.7514 15.3086C0.748589 14.2084 0.107017 12.7731 0.0142471 11.1904L0.00259676 10.7918L0.0022513 7.5092C-0.0118715 7.2689 0.04002 7.02167 0.170127 6.79547L0.284331 6.62842L0.352884 6.54838L6.03823 0.419848C6.24519 0.196755 6.52181 0.0539225 6.81958 0.0125086L7.0004 0H27.9996ZM22.8932 14.7736L22.8723 14.8047C21.6492 16.4402 19.6972 17.4988 17.4979 17.4988C15.2863 17.4988 13.3247 16.4283 12.1031 14.7771C10.8825 16.4283 8.92096 17.4988 6.70934 17.4988C5.88844 17.4988 5.10199 17.3513 4.37503 17.0814L4.37725 32.3733H6.99973L7.0004 20.5643C7.0004 19.8998 7.49415 19.3507 8.13476 19.2637L8.31285 19.2518H16.1805C16.8449 19.2518 17.394 19.7455 17.4809 20.3862L17.4929 20.5643L17.4923 32.3733H30.621L30.6214 17.0827C29.8955 17.3518 29.1102 17.4988 28.2907 17.4988C26.0775 17.4988 24.1147 16.4268 22.8932 14.7736ZM14.8663 21.8768H9.6253V32.3733H14.8663V21.8768ZM26.6954 19.2518C27.3598 19.2518 27.909 19.7455 27.9959 20.3862L28.0079 20.5643V26.6928C28.0079 27.3573 27.5141 27.9064 26.8735 27.9933L26.6954 28.0053H20.5681C19.9037 28.0053 19.3546 27.5115 19.2677 26.8709L19.2557 26.6928V20.5643C19.2557 19.8998 19.7494 19.3507 20.39 19.2637L20.5681 19.2518H26.6954ZM25.3817 21.8768H21.8801V25.3803H25.3817V21.8768ZM10.7908 8.7535H2.62731L2.6275 10.7918L2.6383 11.0911L2.68797 11.4957L2.74527 11.7692L2.83168 12.0702L2.92679 12.3289L2.99798 12.4934C3.05253 12.6122 3.1126 12.7279 3.17788 12.8402L3.35802 13.1228L3.45301 13.2535L3.67836 13.5259L3.92646 13.7781L4.09488 13.9267L4.16853 13.9868C4.71894 14.4251 5.38516 14.7242 6.11389 14.8307L6.42987 14.8644L6.70934 14.8738C8.86975 14.8738 10.6382 13.1953 10.7818 11.0713L10.7912 10.7918L10.7908 8.7535ZM21.5791 8.7535H13.4157L13.4161 10.7918C13.4161 12.8583 14.9517 14.5662 16.9441 14.8365L17.2185 14.8644L17.4979 14.8738C19.6583 14.8738 21.4267 13.1953 21.5704 11.0713L21.5798 10.7918L21.5791 8.7535ZM32.3709 8.7535H24.2075L24.2088 10.7918C24.2088 12.8583 25.7444 14.5662 27.7368 14.8365L28.0112 14.8644L28.2907 14.8738C29.2782 14.8738 30.1838 14.5231 30.8897 13.9395L31.0468 13.8028L31.2495 13.6038L31.5052 13.3077C31.5998 13.187 31.6877 13.0609 31.7685 12.9299L31.9496 12.6031L32.0597 12.3617L32.1616 12.0903L32.2137 11.923L32.2807 11.6569L32.3303 11.3812L32.3618 11.0894L32.3725 10.7918L32.3709 8.7535ZM12.358 2.62325H7.57263L4.32125 6.1285H11.2801L12.358 2.62325ZM19.895 2.62325H15.1037L14.0257 6.1285H20.973L19.895 2.62325ZM27.4256 2.62325H22.6406L23.7186 6.1285H30.677L27.4256 2.62325Z" fill="black"/>
</svg>
