<svg width="35" height="35" viewBox="0 0 35 35" fill="none" xmlns="http://www.w3.org/2000/svg">
<path d="M16.1246 0.0541465C19.6577 -0.224404 23.1921 0.576356 26.2602 2.35047C29.3283 4.12459 31.7854 6.78844 33.3064 9.98955C34.8274 13.1907 35.3407 16.7781 34.7782 20.2773C34.2157 23.7765 32.6041 27.0224 30.1565 29.5856C27.7089 32.1488 24.5408 33.9085 21.0713 34.6317C17.6018 35.355 13.9944 35.0078 10.7266 33.636C7.45872 32.2643 4.68438 29.9326 2.77064 26.9496C0.856898 23.9667 -0.106029 20.4729 0.00926598 16.9307C0.0157295 16.7153 0.0645653 16.5032 0.152986 16.3066C0.241406 16.11 0.36768 15.9328 0.524596 15.785C0.681513 15.6372 0.865999 15.5218 1.06752 15.4453C1.26905 15.3689 1.48366 15.3328 1.69911 15.3393C1.91456 15.3458 2.12663 15.3946 2.3232 15.483C2.51978 15.5714 2.69701 15.6977 2.84479 15.8546C2.99257 16.0115 3.10799 16.196 3.18446 16.3976C3.26094 16.5991 3.29698 16.8137 3.29051 17.0291C3.17966 20.3823 4.25805 23.6666 6.335 26.3013C8.41194 28.9361 11.3537 30.7516 14.64 31.4268C17.9263 32.102 21.3455 31.5934 24.293 29.9909C27.2405 28.3884 29.5264 25.7953 30.7466 22.6701C31.9667 19.5449 32.0425 16.0889 30.9605 12.9132C29.8784 9.73752 27.7083 7.04674 24.8339 5.31664C21.9594 3.58655 18.5658 2.92859 15.253 3.45912C11.9403 3.98965 8.92186 5.67448 6.73145 8.2157L6.2852 8.7582H11.4893L11.7124 8.7757C12.1051 8.82973 12.4649 9.0241 12.7254 9.32288C12.9859 9.62166 13.1294 10.0046 13.1294 10.401C13.1294 10.7974 12.9859 11.1804 12.7254 11.4792C12.4649 11.7779 12.1051 11.9723 11.7124 12.0263L11.4893 12.0416H2.73926L2.51614 12.0263C2.16143 11.9776 1.8324 11.8142 1.57923 11.5611C1.32606 11.3079 1.16266 10.9788 1.11395 10.6241L1.09864 10.401V1.65102L1.11395 1.4279C1.16266 1.07319 1.32606 0.744154 1.57923 0.490985C1.8324 0.237816 2.16143 0.0744149 2.51614 0.0257089L2.73926 0.0103965L2.96239 0.0257089C3.3171 0.0744149 3.64613 0.237816 3.8993 0.490985C4.15247 0.744154 4.31587 1.07319 4.36458 1.4279L4.37989 1.65102L4.3777 5.92321C7.38014 2.51277 11.5944 0.407977 16.1246 0.0563338V0.0541465ZM16.9514 8.7582L17.1746 8.77352C17.5293 8.82222 17.8583 8.98562 18.1115 9.23879C18.3647 9.49196 18.5281 9.821 18.5768 10.1757L18.5921 10.3988V17.4973L22.4202 17.4994L22.6433 17.5148C23.0377 17.567 23.3996 17.7608 23.6617 18.06C23.9239 18.3591 24.0684 18.7434 24.0684 19.1412C24.0684 19.539 23.9239 19.9232 23.6617 20.2224C23.3996 20.5216 23.0377 20.7153 22.6433 20.7676L22.4202 20.7807H16.9514L16.7283 20.7676C16.3733 20.7188 16.044 20.555 15.7908 20.3014C15.5376 20.0478 15.3744 19.7183 15.3261 19.3632L15.3108 19.1401V10.3988L15.3261 10.1757C15.3748 9.821 15.5382 9.49196 15.7914 9.23879C16.0446 8.98562 16.3736 8.82222 16.7283 8.77352L16.9514 8.7582Z" fill="black"/>
</svg>
