<svg width="29" height="35" viewBox="0 0 29 35" fill="none" xmlns="http://www.w3.org/2000/svg">
<path d="M2.46121 34.7399C2.22893 34.8885 1.95501 34.9772 1.66967 34.9962C1.38432 35.0151 1.09861 34.9637 0.844063 34.8474C0.589512 34.7312 0.375997 34.5547 0.22706 34.3373C0.0781234 34.12 -0.000450335 33.8704 1.94153e-06 33.6159V5.98836C1.94153e-06 4.40015 0.709381 2.87698 1.97208 1.75395C3.23479 0.630914 4.94738 0 6.73311 0H22.269C24.054 0.000488409 25.7657 0.631366 27.0279 1.75395C28.2901 2.87653 28.9995 4.39894 29 5.98652V33.6177C29.0001 33.8721 28.9212 34.1215 28.7721 34.3385C28.623 34.5556 28.4095 34.7318 28.155 34.8478C27.9005 34.9639 27.615 35.0152 27.3298 34.9961C27.0447 34.9771 26.7709 34.8884 26.5388 34.7399L14.5 27.0361L2.45914 34.738L2.46121 34.7399ZM25.8924 5.98652C25.8924 5.13133 25.5104 4.31116 24.8305 3.70645C24.1506 3.10174 23.2284 2.76202 22.2669 2.76202H6.73518C5.77363 2.76202 4.85147 3.10174 4.17155 3.70645C3.49163 4.31116 3.10966 5.13133 3.10966 5.98652V30.9202L13.5967 24.2132C13.8611 24.0441 14.1785 23.9531 14.5041 23.9531C14.8298 23.9531 15.1472 24.0441 15.4116 24.2132L25.8945 30.9202V5.98836L25.8924 5.98652Z" fill="black"/>
</svg>
