<svg width="35" height="29" viewBox="0 0 35 29" fill="none" xmlns="http://www.w3.org/2000/svg">
<path d="M6.31944 0H28.6806C32.0503 0 34.8041 2.45857 34.99 5.55636L35 5.89062V23.1094C35 26.2505 32.3624 28.8174 29.0392 28.9907L28.6806 29H6.31944C2.94966 29 0.195911 26.5414 0.0100038 23.4436L0 23.1094V5.89062C0 2.74951 2.63755 0.182616 5.96084 0.00932458L6.31944 0H28.6806H6.31944ZM28.6806 2.71875H6.31944C4.53411 2.71875 3.0699 4.00039 2.92795 5.63048L2.91667 5.89062V23.1094C2.91667 24.7736 4.2916 26.1384 6.04036 26.2707L6.31944 26.2812H28.6806C30.4659 26.2812 31.9301 24.9996 32.0721 23.3695L32.0833 23.1094V5.89062C32.0833 4.22644 30.7084 2.86159 28.9596 2.72926L28.6806 2.71875ZM13.7138 10.1236C13.9272 9.72563 14.4123 9.53804 14.8548 9.65848L15.0181 9.71827L23.5386 13.6894C23.7268 13.7771 23.8793 13.9193 23.9734 14.0947C24.1868 14.4926 24.0568 14.967 23.6879 15.2247L23.5386 15.3106L15.0181 19.2817C14.8831 19.3447 14.7343 19.3774 14.5833 19.3774C14.106 19.3774 13.7091 19.0568 13.6268 18.6341L13.6111 18.4712V10.5288C13.6111 10.3882 13.6463 10.2494 13.7138 10.1236Z" fill="black"/>
</svg>
