<svg width="56" height="60" viewBox="0 0 56 60" fill="none" xmlns="http://www.w3.org/2000/svg">
<rect width="55.8021" height="60" rx="10" fill="url(#paint0_linear)"/>
<path d="M28 3.85938C42.4375 3.85938 54.1188 15.5406 54.1188 29.9563C54.1188 44.3719 42.4375 56.075 28 56.075C13.5625 56.075 1.88126 44.3938 1.88126 29.9781C1.88126 15.5625 13.5625 3.85938 28 3.85938Z" fill="#E74D89"/>
<path d="M28 57.9344C12.5563 57.9344 0 45.4 0 29.9781C0 14.5344 12.5563 2 28 2C43.4437 2 56 14.5344 56 29.9563C56 45.3781 43.4437 57.9344 28 57.9344ZM51.6031 33.7844C50.7937 33.5219 44.2094 31.575 36.7063 32.7563C39.8344 41.3313 41.1031 48.3313 41.3438 49.775C46.725 46.1656 50.5531 40.4344 51.6031 33.7844ZM37.3406 51.9844C36.9906 49.8844 35.5906 42.5781 32.2437 33.8719C32.2 33.8938 32.1344 33.9156 32.0906 33.9156C18.5937 38.6188 13.7594 47.9594 13.3219 48.8344C17.3688 51.9844 22.4656 53.8656 28 53.8656C31.3031 53.8875 34.475 53.2094 37.3406 51.9844V51.9844ZM10.2375 45.9688C10.7844 45.05 17.3469 34.2 29.6844 30.1969C29.9906 30.0875 30.3188 30 30.625 29.9125C30.0344 28.5563 29.3781 27.2 28.6781 25.8656C16.7344 29.4313 5.14063 29.2781 4.09063 29.2563C4.09063 29.4969 4.06875 29.7375 4.06875 29.9781C4.09063 36.125 6.40937 41.725 10.2375 45.9688V45.9688ZM4.59375 25.1C5.66563 25.1219 15.5094 25.1656 26.7094 22.1906C22.75 15.1469 18.4625 9.24063 17.85 8.3875C11.1344 11.5375 6.14687 17.7063 4.59375 25.1ZM22.4 6.76875C23.0563 7.64375 27.4094 13.55 31.325 20.7469C39.8344 17.5531 43.4219 12.7406 43.8594 12.1281C39.6375 8.3875 34.0812 6.1125 28 6.1125C26.075 6.1125 24.1938 6.35313 22.4 6.76875V6.76875ZM46.5063 14.8844C46.0031 15.5625 42 20.7031 33.1625 24.3125C33.7094 25.45 34.2562 26.6094 34.7594 27.7688C34.9344 28.1844 35.1094 28.6 35.2844 28.9938C43.2469 27.9875 51.1437 29.6063 51.9312 29.7594C51.8656 24.1375 49.8531 18.9531 46.5063 14.8844V14.8844Z" fill="#B2215A"/>
<defs>
<linearGradient id="paint0_linear" x1="27.9011" y1="0" x2="27.9011" y2="60" gradientUnits="userSpaceOnUse">
<stop stop-color="#E72783"/>
<stop offset="1" stop-color="#BC005A"/>
</linearGradient>
</defs>
</svg>
