<svg width="50" height="50" viewBox="0 0 50 50" fill="none" xmlns="http://www.w3.org/2000/svg">
<path d="M25 46.7633C19.1984 46.7633 13.6344 44.473 9.53204 40.3963C5.42968 36.3196 3.125 30.7904 3.125 25.025C3.125 19.2597 5.42968 13.7305 9.53204 9.65374C13.6344 5.57702 19.1984 3.28674 25 3.28674C30.8016 3.28674 36.3656 5.57702 40.468 9.65374C44.5703 13.7305 46.875 19.2597 46.875 25.025C46.875 30.7904 44.5703 36.3196 40.468 40.3963C36.3656 44.473 30.8016 46.7633 25 46.7633ZM25 49.8688C31.6304 49.8688 37.9893 47.2513 42.6777 42.5922C47.3661 37.9331 50 31.614 50 25.025C50 18.436 47.3661 12.1169 42.6777 7.45784C37.9893 2.79873 31.6304 0.181274 25 0.181274C18.3696 0.181274 12.0107 2.79873 7.32233 7.45784C2.63392 12.1169 0 18.436 0 25.025C0 31.614 2.63392 37.9331 7.32233 42.5922C12.0107 47.2513 18.3696 49.8688 25 49.8688Z" fill="#898F9C"/>
<path d="M25 12.6031C25.4144 12.6031 25.8118 12.7667 26.1049 13.0579C26.3979 13.3491 26.5625 13.7441 26.5625 14.1559V23.4723H35.9375C36.3519 23.4723 36.7493 23.6359 37.0424 23.9271C37.3354 24.2183 37.5 24.6132 37.5 25.025C37.5 25.4368 37.3354 25.8318 37.0424 26.123C36.7493 26.4142 36.3519 26.5778 35.9375 26.5778H26.5625V35.8942C26.5625 36.306 26.3979 36.7009 26.1049 36.9921C25.8118 37.2833 25.4144 37.4469 25 37.4469C24.5856 37.4469 24.1882 37.2833 23.8951 36.9921C23.6021 36.7009 23.4375 36.306 23.4375 35.8942V26.5778H14.0625C13.6481 26.5778 13.2507 26.4142 12.9576 26.123C12.6646 25.8318 12.5 25.4368 12.5 25.025C12.5 24.6132 12.6646 24.2183 12.9576 23.9271C13.2507 23.6359 13.6481 23.4723 14.0625 23.4723H23.4375V14.1559C23.4375 13.7441 23.6021 13.3491 23.8951 13.0579C24.1882 12.7667 24.5856 12.6031 25 12.6031Z" fill="#898F9C"/>
</svg>
