<svg width="22" height="21" viewBox="0 0 22 21" fill="none" xmlns="http://www.w3.org/2000/svg">
<path d="M19.828 15.828L19.1212 15.1206L19.1206 15.1212L19.828 15.828ZM19.828 2.172L19.1206 2.87881L19.1212 2.87941L19.828 2.172ZM2.172 2.172L2.87881 2.87941L2.87941 2.8788L2.172 2.172ZM2.172 15.828L2.87965 15.1214L2.8788 15.1206L2.172 15.828ZM4.90277 17.8933C5.45244 17.947 5.94156 17.5449 5.99526 16.9952C6.04896 16.4456 5.6469 15.9564 5.09723 15.9027L4.90277 17.8933ZM9.159 18.145L8.69841 17.2574L8.69833 17.2574L9.159 18.145ZM5.67 19.37L6.2282 18.5403L6.22704 18.5395L5.67 19.37ZM5.458 15.966L6.45386 16.0569L6.45396 16.0558L5.458 15.966ZM6.49596 15.5898C6.54554 15.0397 6.13982 14.5536 5.58976 14.504C5.03971 14.4545 4.55361 14.8602 4.50404 15.4102L6.49596 15.5898ZM13 18C14.8572 18 16.3509 18.0021 17.5223 17.8446C18.7224 17.6832 19.7331 17.3378 20.5354 16.5348L19.1206 15.1212C18.7519 15.4902 18.2341 15.7308 17.2557 15.8624C16.2486 15.9979 14.9138 16 13 16V18ZM20.5348 16.5354C21.3378 15.7331 21.6832 14.7224 21.8446 13.5223C22.0021 12.3509 22 10.8572 22 9H20C20 10.9138 19.9979 12.2486 19.8624 13.2557C19.7308 14.234 19.4902 14.7519 19.1212 15.1206L20.5348 16.5354ZM22 9C22 7.14278 22.0021 5.64911 21.8446 4.4777C21.6832 3.27755 21.3378 2.26692 20.5348 1.46459L19.1212 2.87941C19.4902 3.24808 19.7308 3.76595 19.8624 4.7443C19.9979 5.7514 20 7.08622 20 9H22ZM20.5354 1.4652C19.7331 0.662181 18.7224 0.31684 17.5223 0.155424C16.3509 -0.00212526 14.8572 0 13 0V2C14.9138 2 16.2486 2.00213 17.2557 2.13758C18.2341 2.26916 18.7519 2.50982 19.1206 2.8788L20.5354 1.4652ZM13 0H9V2H13V0ZM9 0C7.14278 0 5.64911 -0.00212526 4.4777 0.155424C3.27755 0.31684 2.26692 0.662181 1.46459 1.4652L2.87941 2.8788C3.24808 2.50982 3.76595 2.26916 4.7443 2.13758C5.7514 2.00213 7.08622 2 9 2V0ZM1.4652 1.46459C0.662181 2.26692 0.31684 3.27755 0.155424 4.4777C-0.00212526 5.64911 0 7.14278 0 9H2C2 7.08622 2.00213 5.7514 2.13758 4.7443C2.26916 3.76595 2.50982 3.24808 2.8788 2.87941L1.4652 1.46459ZM0 9C0 10.8572 -0.00212526 12.3509 0.155424 13.5223C0.31684 14.7224 0.662181 15.7331 1.4652 16.5354L2.8788 15.1206C2.50982 14.7519 2.26916 14.234 2.13758 13.2557C2.00213 12.2486 2 10.9138 2 9H0ZM1.46435 16.5346C2.35989 17.4315 3.51466 17.7577 4.90277 17.8933L5.09723 15.9027C3.88534 15.7843 3.29011 15.5325 2.87965 15.1214L1.46435 16.5346ZM13 16C11.5245 16 9.99112 16.5866 8.69841 17.2574L9.61959 19.0326C10.8129 18.4134 12.0035 18 13 18V16ZM8.69833 17.2574C7.67626 17.7879 6.98544 18.1449 6.48754 18.3384C6.24066 18.4343 6.10704 18.4629 6.0478 18.4685C6.00172 18.4728 6.10077 18.4546 6.2282 18.5403L5.1118 20.1997C5.48523 20.4509 5.89365 20.4919 6.2357 20.4596C6.56458 20.4286 6.89784 20.3247 7.21196 20.2026C7.83606 19.9601 8.64374 19.5391 9.61967 19.0326L8.69833 17.2574ZM6.22704 18.5395C6.43796 18.681 6.32393 18.8409 6.30901 18.2858C6.29612 17.8058 6.35784 17.109 6.45386 16.0569L4.46214 15.8751C4.37116 16.872 4.29288 17.7122 4.30974 18.3395C4.32457 18.8916 4.41004 19.729 5.11296 20.2005L6.22704 18.5395ZM6.45396 16.0558L6.49596 15.5898L4.50404 15.4102L4.46204 15.8762L6.45396 16.0558Z" fill="#898F9C"/>
</svg>
