<svg width="46" height="32" viewBox="0 0 46 32" fill="none" xmlns="http://www.w3.org/2000/svg">
<path d="M43.6782 4.91429C42.9797 4.6016 42.2042 4.49989 41.4481 4.6218C40.692 4.74371 39.9886 5.08387 39.4253 5.6L34.4828 10.1714V6.85714C34.4828 5.03852 33.7562 3.29437 32.4628 2.00841C31.1695 0.722447 29.4153 0 27.5862 0H6.89655C5.06747 0 3.31331 0.722447 2.01995 2.00841C0.726599 3.29437 0 5.03852 0 6.85714V25.1429C0 26.9615 0.726599 28.7056 2.01995 29.9916C3.31331 31.2776 5.06747 32 6.89655 32H27.5862C29.4153 32 31.1695 31.2776 32.4628 29.9916C33.7562 28.7056 34.4828 26.9615 34.4828 25.1429V21.8286L39.4483 26.4C40.1793 27.0579 41.1289 27.4242 42.1149 27.4286C42.6621 27.4273 43.2028 27.3104 43.7011 27.0857C44.3792 26.813 44.96 26.3455 45.3695 25.7429C45.779 25.1404 45.9985 24.4301 46 23.7029V8.29714C45.9967 7.56729 45.7738 6.85511 45.36 6.25225C44.9462 5.64939 44.3605 5.18342 43.6782 4.91429Z" fill="#F73B3B"/>
</svg>
