<svg width="28" height="32" viewBox="0 0 28 32" fill="none" xmlns="http://www.w3.org/2000/svg">
<path d="M14 0C17.713 0 21.274 1.44489 23.8995 4.01682C26.525 6.58875 28 10.077 28 13.7143C28 19.392 23.5822 25.341 14.9333 31.6952C14.6641 31.8931 14.3366 32 14 32C13.6634 32 13.3359 31.8931 13.0667 31.6952C4.41778 25.341 0 19.392 0 13.7143C0 10.077 1.475 6.58875 4.1005 4.01682C6.72601 1.44489 10.287 0 14 0ZM14 9.14286C12.7623 9.14286 11.5753 9.62449 10.7002 10.4818C9.825 11.3391 9.33333 12.5019 9.33333 13.7143C9.33333 14.9267 9.825 16.0895 10.7002 16.9468C11.5753 17.8041 12.7623 18.2857 14 18.2857C15.2377 18.2857 16.4247 17.8041 17.2998 16.9468C18.175 16.0895 18.6667 14.9267 18.6667 13.7143C18.6667 12.5019 18.175 11.3391 17.2998 10.4818C16.4247 9.62449 15.2377 9.14286 14 9.14286Z" fill="#3265CC"/>
</svg>
