<svg width="26" height="7" viewBox="0 0 26 7" fill="none" xmlns="http://www.w3.org/2000/svg">
<path d="M13 7C13.862 7 14.6886 6.63125 15.2981 5.97487C15.9076 5.3185 16.25 4.42826 16.25 3.5C16.25 2.57174 15.9076 1.6815 15.2981 1.02513C14.6886 0.36875 13.862 0 13 0C12.138 0 11.3114 0.36875 10.7019 1.02513C10.0924 1.6815 9.75 2.57174 9.75 3.5C9.75 4.42826 10.0924 5.3185 10.7019 5.97487C11.3114 6.63125 12.138 7 13 7ZM3.25 7C4.11195 7 4.9386 6.63125 5.5481 5.97487C6.15759 5.3185 6.5 4.42826 6.5 3.5C6.5 2.57174 6.15759 1.6815 5.5481 1.02513C4.9386 0.36875 4.11195 0 3.25 0C2.38805 0 1.5614 0.36875 0.951903 1.02513C0.34241 1.6815 0 2.57174 0 3.5C0 4.42826 0.34241 5.3185 0.951903 5.97487C1.5614 6.63125 2.38805 7 3.25 7V7ZM22.75 7C23.612 7 24.4386 6.63125 25.0481 5.97487C25.6576 5.3185 26 4.42826 26 3.5C26 2.57174 25.6576 1.6815 25.0481 1.02513C24.4386 0.36875 23.612 0 22.75 0C21.888 0 21.0614 0.36875 20.4519 1.02513C19.8424 1.6815 19.5 2.57174 19.5 3.5C19.5 4.42826 19.8424 5.3185 20.4519 5.97487C21.0614 6.63125 21.888 7 22.75 7V7Z" fill="black"/>
</svg>
