<svg width="15" height="15" viewBox="0 0 15 15" fill="none" xmlns="http://www.w3.org/2000/svg">
<path d="M7.50039 0C3.36389 0 0 3.36484 0 7.5C0 11.6352 3.36389 15 7.50039 15C11.6353 15 15 11.6352 15 7.5C15 3.36484 11.6353 0 7.50039 0ZM13.8969 7.5C13.8969 8.96328 13.4001 10.3125 12.572 11.3906C12.3376 11.2078 12.0884 10.7133 12.3228 10.2008C12.5595 9.68516 12.6212 8.49141 12.5665 8.02656C12.515 7.5625 12.2736 6.44453 11.6181 6.43359C10.9635 6.42422 10.5143 6.20781 10.1253 5.43125C9.31826 3.81562 11.64 3.50547 10.833 2.61172C10.6073 2.36016 9.44013 3.64453 9.26905 1.93281C9.25811 1.81016 9.37451 1.62656 9.53154 1.43594C12.0658 2.2875 13.8969 4.68359 13.8969 7.5ZM6.62153 1.16641C6.46841 1.46484 6.06453 1.58594 5.81923 1.81016C5.28488 2.29375 5.0552 2.22656 4.76772 2.69062C4.47789 3.15469 3.54357 3.82266 3.54357 4.15859C3.54357 4.49453 4.01542 4.88984 4.25134 4.81328C4.48727 4.73516 5.10989 4.73984 5.4755 4.86797C5.84188 4.99766 8.53315 5.12734 7.67538 7.40234C7.40352 8.12578 6.21218 8.00391 5.89501 9.20156C5.84735 9.37734 5.68252 10.1281 5.67236 10.3734C5.65283 10.7531 5.9411 12.1844 5.57471 12.1844C5.20676 12.1844 4.21697 10.9039 4.21697 10.6719C4.21697 10.4398 3.96073 9.62656 3.96073 8.92969C3.96073 8.23359 2.77486 8.24453 2.77486 7.31875C2.77486 6.48437 3.41779 6.06875 3.27327 5.66797C3.13187 5.26953 2.00224 5.25625 1.53117 5.20703C1.94306 4.14128 2.63204 3.20484 3.52693 2.4945C4.42183 1.78415 5.49016 1.32566 6.62153 1.16641ZM5.488 13.5703C5.87235 13.3672 5.91141 13.1047 6.25983 13.0914C6.65825 13.0734 6.98245 12.9359 7.43164 12.8367C7.83006 12.75 8.5433 12.3453 9.17062 12.2937C9.70028 12.2508 10.7448 12.3211 11.026 12.832C10.2196 13.3676 9.30174 13.7124 8.34219 13.8403C7.38263 13.9682 6.40655 13.8759 5.488 13.5703Z" fill="black"/>
</svg>
