<svg width="37" height="32" viewBox="0 0 37 32" fill="none" xmlns="http://www.w3.org/2000/svg">
<path d="M30.2727 28.6316H3.36364V8.42105C3.36364 7.49474 2.60682 6.73684 1.68182 6.73684C0.756818 6.73684 0 7.49474 0 8.42105V28.6316C0 30.4842 1.51364 32 3.36364 32H30.2727C31.1977 32 31.9545 31.2421 31.9545 30.3158C31.9545 29.3895 31.1977 28.6316 30.2727 28.6316Z" fill="#30A834"/>
<path d="M33.6364 3.36842H21.8636L19.4923 0.993684C18.8532 0.353684 17.9955 0 17.1041 0H10.0909C8.24091 0 6.74409 1.51579 6.74409 3.36842L6.72727 21.8947C6.72727 23.7474 8.24091 25.2632 10.0909 25.2632H33.6364C35.4864 25.2632 37 23.7474 37 21.8947V6.73684C37 4.88421 35.4864 3.36842 33.6364 3.36842ZM28.5909 18.5263H15.1364C14.9802 18.5263 14.8271 18.4828 14.6943 18.4005C14.5614 18.3183 14.4541 18.2007 14.3842 18.0608C14.3144 17.9209 14.2848 17.7643 14.2989 17.6086C14.3129 17.4528 14.3699 17.3041 14.4636 17.1789L16.7845 14.0968C17.1209 13.6421 17.7936 13.6421 18.13 14.0968L20.1818 16.8421L23.9155 11.84C24.2518 11.3853 24.9245 11.3853 25.2609 11.84L29.2636 17.1789C29.3573 17.3041 29.4144 17.4528 29.4284 17.6086C29.4424 17.7643 29.4129 17.9209 29.343 18.0608C29.2732 18.2007 29.1658 18.3183 29.033 18.4005C28.9002 18.4828 28.7471 18.5263 28.5909 18.5263Z" fill="#30A834"/>
</svg>
